<?xml version="1.0" standalone="no"?>
<!DOCTYPE svg PUBLIC "-//W3C//DTD SVG 20010904//EN"
 "http://www.w3.org/TR/2001/REC-SVG-20010904/DTD/svg10.dtd">
<svg version="1.0" xmlns="http://www.w3.org/2000/svg"
 width="400.000000pt" height="275.000000pt" viewBox="0 0 400.000000 275.000000"
 preserveAspectRatio="xMidYMid meet">

<g transform="translate(0.000000,275.000000) scale(0.100000,-0.100000)"
fill="#000000" stroke="none">
<path d="M0 1375 l0 -1375 2000 0 2000 0 0 1375 0 1375 -2000 0 -2000 0 0
-1375z m873 1195 c54 -37 71 -74 65 -148 -3 -51 -9 -67 -33 -92 -32 -33 -69
-39 -101 -16 -19 14 -19 15 5 40 35 37 41 116 12 145 -42 42 -112 17 -152 -53
-18 -31 -24 -56 -24 -106 0 -79 24 -126 78 -155 20 -11 37 -22 37 -25 0 -4
-15 -11 -33 -18 -122 -44 -220 -244 -174 -355 21 -48 71 -72 137 -63 53 7 166
60 179 84 5 9 14 49 20 87 20 134 66 237 140 313 54 56 94 74 171 80 60 4 68
2 97 -22 l30 -26 23 108 c38 184 27 165 101 178 35 7 79 12 97 13 29 1 32 -2
27 -21 -40 -168 -145 -689 -145 -718 0 -84 105 -56 143 38 12 29 97 414 97
437 0 3 43 5 95 5 52 0 95 -2 95 -5 0 -4 -84 -411 -95 -459 -2 -10 0 -29 5
-42 12 -32 59 -32 88 -1 34 36 47 79 93 300 l42 207 94 0 c51 0 93 -4 93 -8 0
-5 -20 -105 -45 -223 -61 -287 -61 -299 1 -299 54 0 94 52 94 124 0 17 7 59
15 91 36 137 114 254 199 297 50 26 150 35 200 18 109 -36 95 -231 -14 -203
-19 5 -20 11 -14 62 5 46 3 59 -10 70 -37 31 -99 -31 -139 -140 -50 -132 -60
-280 -23 -317 23 -23 119 -22 168 2 20 9 55 34 77 55 32 30 41 45 41 71 0 46
28 146 58 210 38 79 134 173 194 189 65 18 147 10 169 -17 16 -21 17 -21 22
-2 5 18 14 20 100 20 l95 0 -34 -157 c-78 -367 -78 -365 -16 -371 l32 -3 -25
-49 c-14 -27 -35 -56 -47 -64 -53 -38 -146 -6 -169 58 -7 20 -16 36 -19 36 -3
0 -21 -16 -40 -36 -68 -73 -152 -91 -230 -51 -35 17 -51 33 -70 73 l-25 52
-50 -46 c-77 -70 -144 -97 -240 -97 -95 0 -144 20 -176 71 l-21 35 -33 -34
c-87 -89 -228 -101 -276 -23 -10 17 -19 40 -19 50 0 15 -9 9 -37 -24 -42 -49
-101 -79 -156 -80 -62 0 -121 40 -132 91 l-7 29 -26 -32 c-81 -96 -250 -103
-290 -10 l-16 38 -35 -40 c-101 -112 -270 -95 -312 31 l-11 34 -48 -45 c-151
-141 -401 -155 -487 -27 -93 138 -12 379 151 452 40 17 46 23 33 31 -10 5 -27
28 -39 51 -66 126 19 307 171 364 57 21 161 13 204 -17z m207 -1311 c74 -41
107 -109 89 -186 -16 -73 -97 -107 -149 -65 l-23 19 24 32 c33 44 33 111 1
143 -17 17 -34 23 -67 23 -84 0 -135 -88 -105 -180 11 -33 67 -108 146 -195
91 -99 124 -169 124 -260 0 -117 -66 -212 -183 -265 -78 -36 -190 -44 -271
-21 -153 45 -215 218 -124 349 41 58 137 84 198 52 52 -27 66 -75 23 -75 -34
0 -82 -30 -99 -62 -8 -13 -13 -41 -14 -63 -1 -121 140 -167 231 -76 75 75 61
174 -42 301 -176 218 -183 231 -184 320 0 150 119 244 300 237 63 -3 90 -9
125 -28z m595 -82 c19 -62 35 -116 35 -120 0 -4 -9 -7 -19 -7 -11 0 -36 21
-58 49 l-38 48 -98 -49 c-66 -32 -109 -48 -128 -46 -27 3 -20 10 104 120 72
64 140 117 149 118 13 0 25 -26 53 -113z m953 47 c60 -41 65 -123 11 -168 -45
-38 -92 -35 -135 8 -37 37 -44 81 -20 125 27 48 100 66 144 35z m-1001 -270
c41 -31 56 -85 43 -151 -21 -100 -118 -190 -229 -215 -75 -16 -83 -30 -61
-109 26 -92 177 -72 281 38 34 35 39 49 67 183 17 80 36 173 43 208 l12 62 95
0 95 0 -7 -32 c-6 -30 -5 -30 12 -15 50 46 147 60 208 31 77 -36 85 -117 34
-333 -29 -123 -30 -135 -15 -157 32 -50 109 -12 139 69 13 35 96 405 96 430 0
4 43 7 95 7 52 0 95 -2 95 -5 0 -3 -23 -113 -51 -245 -56 -267 -56 -280 6
-280 24 0 44 9 65 28 26 23 32 38 40 102 19 144 63 245 145 326 39 39 66 56
105 68 103 31 189 14 232 -45 11 -14 24 -53 31 -87 10 -55 14 -62 35 -62 12 0
38 6 56 14 27 11 35 21 40 52 4 22 12 60 18 87 l10 47 94 0 95 0 -7 -36 -6
-35 45 32 c31 22 61 33 94 36 46 5 51 3 76 -27 37 -44 36 -92 -2 -131 -19 -19
-40 -29 -59 -29 -33 0 -47 13 -57 53 -6 21 -13 27 -36 27 -15 0 -40 -11 -55
-24 -29 -24 -35 -49 -111 -428 l-17 -88 -93 0 c-57 0 -93 4 -93 10 0 6 18 97
41 201 22 105 39 193 37 195 -2 2 -27 -4 -56 -12 -42 -13 -52 -20 -52 -38 0
-34 -29 -137 -52 -186 -29 -58 -81 -115 -137 -148 -39 -23 -58 -27 -121 -27
-86 0 -144 25 -174 76 l-17 29 -45 -39 c-49 -43 -117 -71 -174 -71 -44 0 -100
34 -118 73 l-14 28 -42 -39 c-24 -22 -60 -45 -81 -52 -48 -16 -120 -8 -154 17
-62 46 -69 121 -27 300 38 161 33 223 -17 223 -65 0 -90 -56 -147 -332 l-43
-208 -95 0 c-93 0 -94 0 -89 22 3 13 9 41 13 62 l7 40 -59 -46 c-73 -57 -121
-78 -199 -85 -117 -11 -201 37 -225 128 -27 99 16 293 89 399 39 57 110 113
165 130 52 16 152 7 183 -16z"/>
<path d="M1209 2194 c-63 -40 -119 -179 -127 -315 -4 -78 -3 -88 17 -108 11
-11 32 -21 45 -21 26 0 71 31 86 60 8 16 80 338 80 360 0 16 -32 40 -53 40
-12 0 -34 -8 -48 -16z"/>
<path d="M3039 2183 c-90 -76 -156 -374 -94 -419 28 -21 60 -17 93 11 38 32
46 53 82 223 35 165 35 175 14 196 -23 24 -58 19 -95 -11z"/>
<path d="M1486 877 c-44 -47 -114 -237 -87 -237 24 0 69 24 99 53 52 49 74 99
70 160 -3 46 -6 52 -26 55 -16 3 -33 -7 -56 -31z"/>
<path d="M3001 875 c-86 -73 -156 -370 -101 -425 45 -45 101 -11 150 92 38 81
47 139 26 170 -22 31 -20 74 4 98 24 24 25 38 4 68 -20 29 -45 28 -83 -3z"/>
</g>
</svg>
